<?xml version="1.0" encoding="UTF-8" standalone="no"?>
<!-- Created with Inkscape (http://www.inkscape.org/) -->

<svg
   width="210mm"
   height="297mm"
   viewBox="0 0 210 297"
   version="1.1"
   id="svg5"
   inkscape:version="1.1 (c68e22c387, 2021-05-23)"
   sodipodi:docname="CapstoneConcept.svg"
   xmlns:inkscape="http://www.inkscape.org/namespaces/inkscape"
   xmlns:sodipodi="http://sodipodi.sourceforge.net/DTD/sodipodi-0.dtd"
   xmlns="http://www.w3.org/2000/svg"
   xmlns:svg="http://www.w3.org/2000/svg">
  <sodipodi:namedview
     id="namedview7"
     pagecolor="#ffffff"
     bordercolor="#666666"
     borderopacity="1.0"
     inkscape:pageshadow="2"
     inkscape:pageopacity="0.0"
     inkscape:pagecheckerboard="0"
     inkscape:document-units="mm"
     showgrid="false"
     inkscape:zoom="0.7540625"
     inkscape:cx="387.23581"
     inkscape:cy="218.81475"
     inkscape:window-width="1103"
     inkscape:window-height="592"
     inkscape:window-x="372"
     inkscape:window-y="98"
     inkscape:window-maximized="0"
     inkscape:current-layer="layer1" />
  <defs
     id="defs2">
    <rect
       x="360.33861"
       y="673.35164"
       width="295.57729"
       height="29.889839"
       id="rect26388" />
  </defs>
  <g
     inkscape:label="Ebene 1"
     inkscape:groupmode="layer"
     id="layer1">
    <text
       xml:space="preserve"
       style="font-size:3.88056px;line-height:1.25;font-family:sans-serif;stroke-width:0.264583"
       x="45.357738"
       y="52.192467"
       id="text2673"><tspan
         sodipodi:role="line"
         id="tspan2671"
         style="stroke-width:0.264583" /></text>
    <g
       id="g54394"
       transform="matrix(0.79637333,0,0,0.79637333,-5.6669481,68.079251)">
      <g
         id="g21637"
         transform="matrix(0.32422771,0,0,0.32422771,70.197375,35.869402)">
        <path
           style="fill:#550000;stroke-width:0.264583"
           id="path21388"
           d="m 43.186799,67.657249 c -0.280903,5.483286 0.19126,10.981811 0.588701,16.449445 0.340529,3.588795 0.466442,7.19547 0.768879,10.786453 0.02447,0.216699 0.04893,0.433398 0.07339,0.650097 0,0 3.441652,-1.817153 3.441652,-1.817153 v 0 c -0.03723,-0.204372 -0.07446,-0.408744 -0.111688,-0.613116 -0.462167,-3.521093 -0.683163,-7.074278 -1.101707,-10.6007 -0.263747,-3.228838 -0.295082,-3.252962 -0.441862,-6.559743 -0.125817,-2.834497 -0.220647,-5.6857 0.05713,-8.515361 0.04893,-0.498403 0.148719,-0.990497 0.223078,-1.485744 0,0 -3.497575,1.705822 -3.497575,1.705822 z" />
        <path
           style="fill:#550000;stroke-width:0.264583"
           id="path21390"
           d="m 48.883845,94.449886 c -0.402045,-1.303005 -0.142497,-2.622894 0.154966,-3.914976 0.726236,-2.594708 1.703938,-5.113232 2.795786,-7.574153 0.569897,-1.177444 1.298816,-2.277801 2.374807,-3.048561 0.245015,-0.175509 1.027351,-0.630563 0.766445,-0.479679 -0.855448,0.49471 -1.70027,1.00757 -2.550406,1.511355 1.766639,-0.823367 3.341108,-1.90573 5.019588,-2.92949 0,0 -3.622019,1.453372 -3.622019,1.453372 v 0 c 5.592225,-3.080718 2.864461,-1.523931 1.607825,-0.94175 -1.457796,0.833247 -4.07956,1.961613 -5.452049,3.456765 -0.683191,0.744252 -1.168098,1.646309 -1.584211,2.557891 -1.051295,2.512328 -2.048383,5.057204 -2.828486,7.667856 -0.300775,1.364911 -0.516403,2.739765 -0.155067,4.119401 0,0 3.472821,-1.878031 3.472821,-1.878031 z" />
        <path
           style="fill:#550000;stroke-width:0.264583"
           id="path21392"
           d="m 47.59239,94.430642 c -0.622454,-1.3429 -0.962155,-2.790854 -1.485826,-4.169357 -0.663642,-1.263438 -1.07283,-2.608487 -1.408211,-3.988794 -0.502459,-1.769856 -1.256659,-2.374226 -2.863535,-3.173635 -1.078166,-0.471247 -2.205667,-0.814811 -3.316981,-1.197134 0,0 -3.139609,2.125911 -3.139609,2.125911 v 0 c 1.089639,0.374251 2.189057,0.727398 3.247761,1.184815 1.462762,0.716441 2.213766,1.287383 2.661382,2.904683 0.357381,1.389391 0.749049,2.758797 1.428002,4.032525 0.540046,1.375662 0.922075,2.808714 1.427427,4.197501 0,0 3.44959,-1.916515 3.44959,-1.916515 z" />
      </g>
      <g
         id="g21645"
         transform="matrix(0.32422771,0,0,0.32422771,69.576036,58.237603)">
        <path
           style="fill:#550000;stroke-width:0.264583"
           id="path21639"
           d="m 43.186799,67.657249 c -0.280903,5.483286 0.19126,10.981811 0.588701,16.449445 0.340529,3.588795 0.466442,7.19547 0.768879,10.786453 0.02447,0.216699 0.04893,0.433398 0.07339,0.650097 0,0 3.441652,-1.817153 3.441652,-1.817153 v 0 c -0.03723,-0.204372 -0.07446,-0.408744 -0.111688,-0.613116 -0.462167,-3.521093 -0.683163,-7.074278 -1.101707,-10.6007 -0.263747,-3.228838 -0.295082,-3.252962 -0.441862,-6.559743 -0.125817,-2.834497 -0.220647,-5.6857 0.05713,-8.515361 0.04893,-0.498403 0.148719,-0.990497 0.223078,-1.485744 0,0 -3.497575,1.705822 -3.497575,1.705822 z" />
        <path
           style="fill:#550000;stroke-width:0.264583"
           id="path21641"
           d="m 48.883845,94.449886 c -0.402045,-1.303005 -0.142497,-2.622894 0.154966,-3.914976 0.726236,-2.594708 1.703938,-5.113232 2.795786,-7.574153 0.569897,-1.177444 1.298816,-2.277801 2.374807,-3.048561 0.245015,-0.175509 1.027351,-0.630563 0.766445,-0.479679 -0.855448,0.49471 -1.70027,1.00757 -2.550406,1.511355 1.766639,-0.823367 3.341108,-1.90573 5.019588,-2.92949 0,0 -3.622019,1.453372 -3.622019,1.453372 v 0 c 5.592225,-3.080718 2.864461,-1.523931 1.607825,-0.94175 -1.457796,0.833247 -4.07956,1.961613 -5.452049,3.456765 -0.683191,0.744252 -1.168098,1.646309 -1.584211,2.557891 -1.051295,2.512328 -2.048383,5.057204 -2.828486,7.667856 -0.300775,1.364911 -0.516403,2.739765 -0.155067,4.119401 0,0 3.472821,-1.878031 3.472821,-1.878031 z" />
        <path
           style="fill:#550000;stroke-width:0.264583"
           id="path21643"
           d="m 47.59239,94.430642 c -0.622454,-1.3429 -0.962155,-2.790854 -1.485826,-4.169357 -0.663642,-1.263438 -1.07283,-2.608487 -1.408211,-3.988794 -0.502459,-1.769856 -1.256659,-2.374226 -2.863535,-3.173635 -1.078166,-0.471247 -2.205667,-0.814811 -3.316981,-1.197134 0,0 -3.139609,2.125911 -3.139609,2.125911 v 0 c 1.089639,0.374251 2.189057,0.727398 3.247761,1.184815 1.462762,0.716441 2.213766,1.287383 2.661382,2.904683 0.357381,1.389391 0.749049,2.758797 1.428002,4.032525 0.540046,1.375662 0.922075,2.808714 1.427427,4.197501 0,0 3.44959,-1.916515 3.44959,-1.916515 z" />
      </g>
      <g
         id="g21653"
         transform="matrix(0.32422771,0,0,0.32422771,69.576036,79.673795)">
        <path
           style="fill:#550000;stroke-width:0.264583"
           id="path21647"
           d="m 43.186799,67.657249 c -0.280903,5.483286 0.19126,10.981811 0.588701,16.449445 0.340529,3.588795 0.466442,7.19547 0.768879,10.786453 0.02447,0.216699 0.04893,0.433398 0.07339,0.650097 0,0 3.441652,-1.817153 3.441652,-1.817153 v 0 c -0.03723,-0.204372 -0.07446,-0.408744 -0.111688,-0.613116 -0.462167,-3.521093 -0.683163,-7.074278 -1.101707,-10.6007 -0.263747,-3.228838 -0.295082,-3.252962 -0.441862,-6.559743 -0.125817,-2.834497 -0.220647,-5.6857 0.05713,-8.515361 0.04893,-0.498403 0.148719,-0.990497 0.223078,-1.485744 0,0 -3.497575,1.705822 -3.497575,1.705822 z" />
        <path
           style="fill:#550000;stroke-width:0.264583"
           id="path21649"
           d="m 48.883845,94.449886 c -0.402045,-1.303005 -0.142497,-2.622894 0.154966,-3.914976 0.726236,-2.594708 1.703938,-5.113232 2.795786,-7.574153 0.569897,-1.177444 1.298816,-2.277801 2.374807,-3.048561 0.245015,-0.175509 1.027351,-0.630563 0.766445,-0.479679 -0.855448,0.49471 -1.70027,1.00757 -2.550406,1.511355 1.766639,-0.823367 3.341108,-1.90573 5.019588,-2.92949 0,0 -3.622019,1.453372 -3.622019,1.453372 v 0 c 5.592225,-3.080718 2.864461,-1.523931 1.607825,-0.94175 -1.457796,0.833247 -4.07956,1.961613 -5.452049,3.456765 -0.683191,0.744252 -1.168098,1.646309 -1.584211,2.557891 -1.051295,2.512328 -2.048383,5.057204 -2.828486,7.667856 -0.300775,1.364911 -0.516403,2.739765 -0.155067,4.119401 0,0 3.472821,-1.878031 3.472821,-1.878031 z" />
        <path
           style="fill:#550000;stroke-width:0.264583"
           id="path21651"
           d="m 47.59239,94.430642 c -0.622454,-1.3429 -0.962155,-2.790854 -1.485826,-4.169357 -0.663642,-1.263438 -1.07283,-2.608487 -1.408211,-3.988794 -0.502459,-1.769856 -1.256659,-2.374226 -2.863535,-3.173635 -1.078166,-0.471247 -2.205667,-0.814811 -3.316981,-1.197134 0,0 -3.139609,2.125911 -3.139609,2.125911 v 0 c 1.089639,0.374251 2.189057,0.727398 3.247761,1.184815 1.462762,0.716441 2.213766,1.287383 2.661382,2.904683 0.357381,1.389391 0.749049,2.758797 1.428002,4.032525 0.540046,1.375662 0.922075,2.808714 1.427427,4.197501 0,0 3.44959,-1.916515 3.44959,-1.916515 z" />
      </g>
      <text
         xml:space="preserve"
         style="font-size:3.88056px;line-height:1.25;font-family:sans-serif;fill:#7fff2a;stroke-width:0.264583"
         x="53.161709"
         y="73.591621"
         id="text27770"><tspan
           sodipodi:role="line"
           id="tspan27768"
           style="fill:#7fff2a;stroke-width:0.264583"
           x="53.161709"
           y="73.591621">theOptimizerRaw (&quot;aaKA/&quot;++sourceP) arToken</tspan><tspan
           sodipodi:role="line"
           style="fill:#7fff2a;stroke-width:0.264583"
           x="53.161709"
           y="78.442322"
           id="tspan29634">main: 130</tspan><tspan
           sodipodi:role="line"
           style="fill:#7fff2a;stroke-width:0.264583"
           x="53.161709"
           y="83.293022"
           id="tspan29638">defined in Path2Val.hs</tspan></text>
      <text
         xml:space="preserve"
         style="font-size:3.88056px;line-height:1.25;font-family:sans-serif;fill:#7fff2a;stroke-width:0.264583"
         x="54.919121"
         y="96.437973"
         id="text34694"><tspan
           sodipodi:role="line"
           id="tspan34692"
           style="fill:#7fff2a;stroke-width:0.264583"
           x="54.919121"
           y="96.437973">writeOptimGraphRaw (&quot;aaKA/&quot;++decideInp) [1..findLAen] readToken writeToken (read cgraph) (read writeE) (simuWrite) writeToKA</tspan><tspan
           sodipodi:role="line"
           style="fill:#7fff2a;stroke-width:0.264583"
           x="54.919121"
           y="101.28867"
           id="tspan37270">main: 160</tspan><tspan
           sodipodi:role="line"
           style="fill:#7fff2a;stroke-width:0.264583"
           x="54.919121"
           y="106.13937"
           id="tspan37272">defined in Path2Val.hs</tspan></text>
      <text
         xml:space="preserve"
         style="font-size:3.88056px;line-height:1.25;font-family:sans-serif;fill:#7fff2a;stroke-width:0.264583"
         x="55.138798"
         y="121.04174"
         id="text41858"><tspan
           sodipodi:role="line"
           id="tspan41856"
           style="fill:#7fff2a;stroke-width:0.264583"
           x="55.138798"
           y="121.04174">val2PatternFile (arToken) arWrite</tspan><tspan
           sodipodi:role="line"
           style="fill:#7fff2a;stroke-width:0.264583"
           x="55.138798"
           y="125.89244"
           id="tspan42244">main:170</tspan><tspan
           sodipodi:role="line"
           style="fill:#7fff2a;stroke-width:0.264583"
           x="55.138798"
           y="130.74313"
           id="tspan42246">defined in Path2Val.hs</tspan></text>
      <text
         xml:space="preserve"
         style="font-size:3.88056px;line-height:1.25;font-family:Papyrus;-inkscape-font-specification:Papyrus;stroke-width:0.264583"
         x="11.642854"
         y="75.788383"
         id="text48762"><tspan
           sodipodi:role="line"
           id="tspan48760"
           style="stroke-width:0.264583"
           x="11.642854"
           y="75.788383">gather</tspan><tspan
           sodipodi:role="line"
           style="stroke-width:0.264583"
           x="11.642854"
           y="80.639084"
           id="tspan48764">n runs in optimizer</tspan><tspan
           sodipodi:role="line"
           style="stroke-width:0.264583"
           x="11.642854"
           y="85.489784"
           id="tspan61668">file</tspan></text>
      <text
         xml:space="preserve"
         style="font-size:3.88056px;line-height:1.25;font-family:Papyrus;-inkscape-font-specification:Papyrus;stroke-width:0.264583"
         x="14.498648"
         y="97.756035"
         id="text64764"><tspan
           sodipodi:role="line"
           id="tspan64762"
           style="stroke-width:0.264583"
           x="14.498648"
           y="97.756035">retreve min or</tspan><tspan
           sodipodi:role="line"
           style="stroke-width:0.264583"
           x="14.498648"
           y="102.60674"
           id="tspan64766">      medisn or</tspan><tspan
           sodipodi:role="line"
           style="stroke-width:0.264583"
           x="14.498648"
           y="107.45744"
           id="tspan64768">     max </tspan></text>
      <g
         id="g53399"
         style="fill:#61e986;fill-opacity:1">
        <text
           xml:space="preserve"
           style="font-size:3.88056px;line-height:1.25;font-family:Papyrus;-inkscape-font-specification:Papyrus;fill:#61e986;fill-opacity:1;stroke-width:0.264583"
           x="13.771329"
           y="50.757671"
           id="text46772"><tspan
             sodipodi:role="line"
             id="tspan46770"
             style="fill:#61e986;fill-opacity:1;stroke-width:0.264583"
             x="13.771329"
             y="50.757671">simulation</tspan><tspan
             sodipodi:role="line"
             style="fill:#61e986;fill-opacity:1;stroke-width:0.264583"
             x="13.771329"
             y="55.608372"
             id="tspan53788">write Error.txt (the latest successful computation)</tspan></text>
        <text
           xml:space="preserve"
           style="font-size:3.88056px;line-height:1.25;font-family:sans-serif;fill:#61e986;fill-opacity:1;stroke-width:0.264583"
           x="40.58606"
           y="29.789864"
           id="text20654"><tspan
             sodipodi:role="line"
             id="tspan20652"
             style="fill:#61e986;fill-opacity:1;stroke-width:0.264583"
             x="40.58606"
             y="29.789864">runKAGO3 solang (read rnd) ari arWrite </tspan><tspan
             sodipodi:role="line"
             style="fill:#61e986;fill-opacity:1;stroke-width:0.264583"
             x="40.58606"
             y="34.640564"
             id="tspan25691">main :117</tspan><tspan
             sodipodi:role="line"
             style="fill:#61e986;fill-opacity:1;stroke-width:0.264583"
             x="40.58606"
             y="39.491264"
             id="tspan25693">defined in DreiBandTEST.hs</tspan></text>
        <text
           xml:space="preserve"
           style="font-size:3.88056px;line-height:1.25;font-family:sans-serif;fill:#61e986;fill-opacity:1;stroke-width:0.264583"
           x="43.905514"
           y="9.4448471"
           id="text1919"><tspan
             sodipodi:role="line"
             id="tspan1917"
             style="fill:#61e986;fill-opacity:1;stroke-width:0.264583"
             x="43.905514"
             y="9.4448471">stack ghci src/DreiBandTEST.hs</tspan></text>
        <text
           xml:space="preserve"
           style="font-size:3.88056px;line-height:1.25;font-family:sans-serif;fill:#61e986;fill-opacity:1;stroke-width:0.264583"
           x="45.011337"
           y="19.317879"
           id="text6578"><tspan
             sodipodi:role="line"
             id="tspan6576"
             style="fill:#61e986;fill-opacity:1;stroke-width:0.264583"
             x="45.011337"
             y="19.317879">stack eval 'Lib.runKAGO3 \&quot;1200\&quot; \&quot;2003\&quot; \&quot;seto.txt\&quot; \&quot;bolg.txt\&quot;'</tspan></text>
      </g>
    </g>
    <rect
       style="fill:#ffe680;stroke-width:0.264583"
       id="rect15614"
       width="64.145531"
       height="34.489204"
       x="21.747972"
       y="171.12798" />
    <text
       xml:space="preserve"
       style="font-size:3.88056px;line-height:1.25;font-family:sans-serif;stroke-width:0.264583"
       x="31.194057"
       y="189.80048"
       id="text17048"><tspan
         sodipodi:role="line"
         id="tspan17046"
         style="stroke-width:0.264583"
         x="31.194057"
         y="189.80048">outThere01Com.js</tspan></text>
    <text
       xml:space="preserve"
       transform="scale(0.26458333)"
       id="text26386"
       style="line-height:1.25;font-family:sans-serif;font-size:14.66666667px;white-space:pre;shape-inside:url(#rect26388);fill:#7fff2a" />
    <rect
       style="fill:#7fff2a;stroke-width:0.39556"
       id="rect27832"
       width="73.992416"
       height="13.828124"
       x="85.893501"
       y="171.12798" />
    <rect
       style="fill:#cdde87;stroke-width:0.39556"
       id="rect27914"
       width="73.992416"
       height="13.828124"
       x="85.893501"
       y="191.78906" />
    <text
       xml:space="preserve"
       style="font-size:3.88056px;line-height:1.25;font-family:sans-serif;stroke-width:0.264583"
       x="100.17544"
       y="178.77194"
       id="text29266"><tspan
         sodipodi:role="line"
         id="tspan29264"
         style="stroke-width:0.264583"
         x="100.17544"
         y="178.77194">haskell stream</tspan></text>
    <text
       xml:space="preserve"
       style="font-size:3.88056px;line-height:1.25;font-family:sans-serif;stroke-width:0.264583"
       x="100.17544"
       y="198.07018"
       id="text30986"><tspan
         sodipodi:role="line"
         id="tspan30984"
         style="stroke-width:0.264583"
         x="100.17544"
         y="198.07018">node.js stream</tspan></text>
    <text
       xml:space="preserve"
       style="font-size:2.41175px;line-height:1.25;font-family:sans-serif;fill:#ffd42a;stroke-width:0.164437"
       x="6.666667"
       y="11.866503"
       id="text56856"><tspan
         sodipodi:role="line"
         id="tspan56854"
         style="fill:#ffd42a;stroke-width:0.164437"
         x="6.666667"
         y="11.866503">Capstone  - the missing link maybe the weakest</tspan><tspan
         sodipodi:role="line"
         style="fill:#ffd42a;stroke-width:0.164437"
         x="6.666667"
         y="14.881187"
         id="tspan6127">Capstone -</tspan><tspan
         sodipodi:role="line"
         style="fill:#ffd42a;stroke-width:0.164437"
         x="6.666667"
         y="17.895872"
         id="tspan10227">haskell module 'PuntktDataType'</tspan><tspan
         sodipodi:role="line"
         style="fill:#ffd42a;stroke-width:0.164437"
         x="6.666667"
         y="20.910557"
         id="tspan11979">        </tspan><tspan
         sodipodi:role="line"
         style="fill:#ffd42a;stroke-width:0.164437"
         x="6.666667"
         y="23.925241"
         id="tspan103369"> but definetly the reason to deploy node.js:</tspan><tspan
         sodipodi:role="line"
         style="fill:#ffd42a;stroke-width:0.164437"
         x="6.666667"
         y="26.939928"
         id="tspan56858" /><tspan
         sodipodi:role="line"
         style="fill:#ffd42a;stroke-width:0.164437"
         x="6.666667"
         y="29.954613"
         id="tspan4059" /><tspan
         sodipodi:role="line"
         style="fill:#ffd42a;stroke-width:0.164437"
         x="6.666667"
         y="32.969299"
         id="tspan4061" /><tspan
         sodipodi:role="line"
         style="fill:#ffd42a;stroke-width:0.164437"
         x="6.666667"
         y="35.983982"
         id="tspan2683">below questionable and not used </tspan><tspan
         sodipodi:role="line"
         style="fill:#ffd42a;stroke-width:0.164437"
         x="6.666667"
         y="38.998669"
         id="tspan56860">https://www.w3schools.com/howto/tryit.asp?filename=tryhow_js_cascading_dropdown</tspan><tspan
         sodipodi:role="line"
         style="fill:#ffd42a;stroke-width:0.164437"
         x="6.666667"
         y="42.013355"
         id="tspan106473" /><tspan
         sodipodi:role="line"
         style="fill:#ffd42a;stroke-width:0.164437"
         x="6.666667"
         y="45.028038"
         id="tspan106475">Capstone - capstone.js a Html with JS that is good</tspan><tspan
         sodipodi:role="line"
         style="fill:#ffd42a;stroke-width:0.164437"
         x="6.666667"
         y="48.042725"
         id="tspan106477">                 for calling atoms out of of object lists </tspan><tspan
         sodipodi:role="line"
         style="fill:#ffd42a;stroke-width:0.164437"
         x="6.666667"
         y="51.057411"
         id="tspan106479">                 in Html, it will be the metric of ho to write</tspan><tspan
         sodipodi:role="line"
         style="fill:#ffd42a;stroke-width:0.164437"
         x="6.666667"
         y="54.072094"
         id="tspan106481">                 Cells</tspan><tspan
         sodipodi:role="line"
         style="fill:#ffd42a;stroke-width:0.164437"
         x="6.666667"
         y="57.086777"
         id="tspan56862">Lib  -  Lib.hs  call all functionality of module </tspan><tspan
         sodipodi:role="line"
         style="fill:#ffd42a;stroke-width:0.164437"
         x="6.666667"
         y="60.10146"
         id="tspan56864" /><tspan
         sodipodi:role="line"
         style="fill:#ffd42a;stroke-width:0.164437"
         x="6.666667"
         y="63.116146"
         id="tspan56866">e.g :</tspan></text>
  </g>
</svg>
